<svg xmlns="http://www.w3.org/2000/svg" version="1.1" viewBox="-5.0 -10.0 110.0 135.0">
 <g>
  <path d="m80.848 15.426h-3.7109v-3.668c0-3.4531-2.6055-6.3047-5.9531-6.7109l-40.758-0.046875c-3.7266 0-6.7578 3.0312-6.7578 6.7578v3.668h-4.5c-4.8633 0-8.832 3.9688-8.832 8.832v45.148c0 4.7266 3.8477 8.5742 8.5742 8.5742h22.863l-3.5625 8.7891h-4c-1.9375 0-3.5312 1.5742-3.5312 3.5312v1.168c0 1.9375 1.5742 3.5312 3.5312 3.5312h31.605c1.9375 0 3.5312-1.5742 3.5312-3.5312v-1.168c0-1.9375-1.5742-3.5312-3.5312-3.5312h-4l-3.9531-8.7891h23.258c4.7266 0 8.5742-3.8477 8.5742-8.5742v-3.332-0.015625-41.816c-0.011718-4.8633-3.9688-8.8164-8.8477-8.8164zm-3.7109 8.1641c2.4375 0.12109 4.3945 2.1523 4.3945 4.6211v36.953h-4.3945zm-51.652-11.832c0-2.7266 2.2109-4.9375 4.9375-4.9375h39.953c2.7266 0 4.9375 2.2109 4.9375 4.9375v4.5625 0.015626 0.015624 6.3164 0.015625 0.015625 42.484h-49.828zm-13.332 12.5c0-3.8633 3.1367-7 7-7h4.5v4.5h-0.78906v0.015626c-3.4531 0.12109-6.2109 2.9688-6.2109 6.4375v36.953l-4.5 0.003907zm11.5-0.68359v41.59h-5.168v-36.953c0-2.4688 1.9531-4.5 4.3945-4.6211v-0.015625zm42.152 65.047c0.9375 0 1.6953 0.75781 1.6953 1.6953v1.168c0 0.9375-0.75781 1.6953-1.6953 1.6953l-31.609 0.003906c-0.9375 0-1.6953-0.75781-1.6953-1.6953v-1.168c0-0.9375 0.75781-1.6953 1.6953-1.6953zm-5.9883-1.832h-19.633l3.5469-8.7891h12.105zm28.031-17.363c0 3.7266-3.0312 6.7578-6.7578 6.7578h-62.195c-3.7266 0-6.7578-3.0312-6.7578-6.7578v-2.4258h0.33203 5.0898-0.03125 59.758 5.1523 0.03125 5.3945v2.4258zm0-4.2578h-4.5v-36.957c0-3.4844-2.7734-6.3164-6.2266-6.4375v-4.5156h3.7109c3.8633 0 7 3.1367 7 7v40.91z"/>
  <path d="m41.016 68.5c-1.6953 0-3.0898 1.3789-3.0898 3.0898 0 1.6953 1.3789 3.0898 3.0898 3.0898 1.6953 0 3.0898-1.3789 3.0898-3.0898 0-1.7109-1.3945-3.0898-3.0898-3.0898zm0 4.3477c-0.69531 0-1.2578-0.5625-1.2578-1.2578 0-0.69531 0.5625-1.2578 1.2578-1.2578s1.2578 0.5625 1.2578 1.2578c0 0.68359-0.5625 1.2578-1.2578 1.2578z"/>
  <path d="m50 68.5c-1.6953 0-3.0898 1.3789-3.0898 3.0898 0 1.6953 1.3789 3.0898 3.0898 3.0898 1.6953 0 3.0898-1.3789 3.0898-3.0898 0-1.7109-1.3945-3.0898-3.0898-3.0898zm0 4.3477c-0.69531 0-1.2578-0.5625-1.2578-1.2578 0-0.69531 0.5625-1.2578 1.2578-1.2578s1.2578 0.5625 1.2578 1.2578c0 0.68359-0.5625 1.2578-1.2578 1.2578z"/>
  <path d="m58.984 68.5c-1.6953 0-3.0898 1.3789-3.0898 3.0898 0 1.6953 1.3789 3.0898 3.0898 3.0898 1.6953 0 3.0898-1.3789 3.0898-3.0898 0-1.7109-1.3906-3.0898-3.0898-3.0898zm0 4.3477c-0.69531 0-1.2578-0.5625-1.2578-1.2578 0-0.69531 0.5625-1.2578 1.2578-1.2578s1.2578 0.5625 1.2578 1.2578c0 0.68359-0.55859 1.2578-1.2578 1.2578z"/>
  <path d="m69.031 10.742h-37.289c-1.3047 0-2.3477 1.0625-2.3477 2.3477v8.1367c0 1.3047 1.0625 2.3477 2.3477 2.3477h37.289c1.3047 0 2.3477-1.0625 2.3477-2.3477v-8.1367c0-1.3008-1.0469-2.3477-2.3477-2.3477zm0.53125 10.484c0 0.28906-0.22656 0.51563-0.51562 0.51563h-37.305c-0.28906 0-0.51563-0.22656-0.51563-0.51563v-8.1367c0-0.28906 0.22656-0.51562 0.51563-0.51562h37.289c0.28906 0 0.51562 0.22656 0.51562 0.51562v8.1367z"/>
  <path d="m34.953 26.789c-3.0742 0-5.5625 2.5-5.5625 5.5625 0 3.0742 2.5 5.5625 5.5625 5.5625s5.5625-2.5 5.5625-5.5625c0.015625-3.0625-2.4844-5.5625-5.5625-5.5625zm0 9.3164c-2.0625 0-3.7422-1.6836-3.7422-3.7422 0-2.0625 1.6836-3.7422 3.7422-3.7422 2.0625 0 3.7422 1.6836 3.7422 3.7422 0 2.0625-1.6641 3.7422-3.7422 3.7422z"/>
  <path d="m34.953 39.316c-3.0742 0-5.5625 2.5-5.5625 5.5625s2.5 5.5625 5.5625 5.5625 5.5625-2.5 5.5625-5.5625-2.4844-5.5625-5.5625-5.5625zm0 9.3203c-2.0625 0-3.7422-1.6836-3.7422-3.7422 0-2.0625 1.6836-3.7422 3.7422-3.7422 2.0625 0 3.7422 1.6836 3.7422 3.7422 0 2.0586-1.6641 3.7422-3.7422 3.7422z"/>
  <path d="m34.953 51.848c-3.0742 0-5.5625 2.5-5.5625 5.5625 0 3.0742 2.5 5.5625 5.5625 5.5625s5.5625-2.5 5.5625-5.5625c0.015625-3.0625-2.4844-5.5625-5.5625-5.5625zm0 9.3047c-2.0625 0-3.7422-1.6836-3.7422-3.7422 0-2.0625 1.6836-3.7422 3.7422-3.7422 2.0625 0 3.7422 1.6836 3.7422 3.7422s-1.6641 3.7422-3.7422 3.7422z"/>
  <path d="m70.469 29.152h-24.863c-0.5 0-0.91016 0.41016-0.91016 0.91016s0.41016 0.91016 0.91016 0.91016h24.863c0.5 0 0.91016-0.41016 0.91016-0.91016s-0.41016-0.91016-0.91016-0.91016z"/>
  <path d="m45.605 35.574h17.684c0.5 0 0.91016-0.41016 0.91016-0.91016s-0.41016-0.91016-0.91016-0.91016l-17.684 0.003906c-0.5 0-0.91016 0.41016-0.91016 0.91016s0.41016 0.90625 0.91016 0.90625z"/>
  <path d="m70.469 41.684h-24.863c-0.5 0-0.91016 0.41016-0.91016 0.91016s0.41016 0.91016 0.91016 0.91016h24.863c0.5 0 0.91016-0.41016 0.91016-0.91016 0-0.50391-0.41016-0.91016-0.91016-0.91016z"/>
  <path d="m45.605 48.105h17.684c0.5 0 0.91016-0.41016 0.91016-0.91016s-0.41016-0.91016-0.91016-0.91016l-17.684 0.003906c-0.5 0-0.91016 0.41016-0.91016 0.91016 0 0.49609 0.41016 0.90625 0.91016 0.90625z"/>
  <path d="m70.469 54.211h-24.863c-0.5 0-0.91016 0.41016-0.91016 0.91016s0.41016 0.91016 0.91016 0.91016h24.863c0.5 0 0.91016-0.41016 0.91016-0.91016s-0.41016-0.91016-0.91016-0.91016z"/>
  <path d="m63.289 58.805h-17.684c-0.5 0-0.91016 0.41016-0.91016 0.91016s0.41016 0.91016 0.91016 0.91016h17.684c0.5 0 0.91016-0.41016 0.91016-0.91016-0.003907-0.50391-0.41016-0.91016-0.91016-0.91016z"/>
  <path d="m35.91 30.59-1.6055 1.6055-0.30469-0.30469c-0.36328-0.36328-0.9375-0.36328-1.2891 0-0.36328 0.36328-0.36328 0.9375 0 1.2891l0.95312 0.95312c0.16797 0.16797 0.41016 0.27344 0.65234 0.27344 0.24219 0 0.46875-0.089844 0.65234-0.27344l2.2422-2.2422c0.36328-0.36328 0.36328-0.9375 0-1.2891-0.36328-0.35937-0.9375-0.35937-1.3008-0.011718z"/>
  <path d="m35.91 43.121-1.6055 1.6055-0.30469-0.30469c-0.36328-0.36328-0.9375-0.36328-1.2891 0-0.36328 0.36328-0.36328 0.9375 0 1.2891l0.95312 0.95312c0.18359 0.18359 0.41016 0.27344 0.65234 0.27344 0.22656 0 0.46875-0.089844 0.65234-0.27344l2.2422-2.2422c0.36328-0.36328 0.36328-0.9375 0-1.2891-0.36328-0.34375-0.9375-0.375-1.3008-0.011718z"/>
  <path d="m36.727 55.652c-0.36328-0.36328-0.9375-0.36328-1.2891 0l-0.46875 0.46875-0.46875-0.46875c-0.36328-0.36328-0.9375-0.36328-1.2891 0-0.36328 0.36328-0.36328 0.9375 0 1.2891l0.46875 0.46875-0.46875 0.46875c-0.36328 0.36328-0.36328 0.9375 0 1.2891 0.18359 0.18359 0.41016 0.27344 0.65234 0.27344 0.24219 0 0.46875-0.089844 0.65234-0.27344l0.46875-0.46875 0.46875 0.46875c0.18359 0.18359 0.41016 0.27344 0.65234 0.27344 0.24219 0 0.46875-0.089844 0.65234-0.27344 0.36328-0.36328 0.36328-0.9375 0-1.2891l-0.46875-0.46875 0.46875-0.46875c0.33203-0.35156 0.33203-0.94141-0.03125-1.2891z"/>
 </g>
<text x="0.0" y="117.5" font-size="5.0" font-weight="bold" font-family="Arbeit Regular, Helvetica, Arial-Unicode, Arial, Sans-serif" fill="#000000">Created by Design Circle</text><text x="0.0" y="122.5" font-size="5.0" font-weight="bold" font-family="Arbeit Regular, Helvetica, Arial-Unicode, Arial, Sans-serif" fill="#000000">from Noun Project</text></svg>